<svg id="Layer_1" data-name="Layer 1" xmlns="http://www.w3.org/2000/svg" viewBox="0 0 283.46 283.46"><defs><style>.cls-1{fill:#f7f8f8;}.cls-2{fill:#2b3187;}.cls-3{fill:#0e0f1f;}</style></defs><rect class="cls-1" width="283.46" height="283.46"/><path class="cls-2" d="M155.76,279V562.41H439.22V279ZM415.6,538.79H181.83l21.27-23.62,170.15-189H341.47L203,480l-23.62,26.24V302.57H413.17L391.9,326.19l-170.15,189h31.78L392,361.41l23.62-26.23Z" transform="translate(-155.76 -278.95)"/><polygon class="cls-3" points="47.24 142.54 111.78 70.87 47.24 70.87 47.24 47.24 133.05 47.24 164.84 47.24 47.24 177.84 47.24 142.54"/><polygon class="cls-3" points="236.22 140.92 171.68 212.6 236.22 212.6 236.22 236.22 150.41 236.22 118.63 236.22 236.22 105.62 236.22 140.92"/></svg>